<svg xmlns="http://www.w3.org/2000/svg" width="162.231" height="296.974" viewBox="0 0 162.231 296.974">
  <path id="Path_365" data-name="Path 365" d="M993.644,60.772c-.534-.249-2.275-.567-3.061,1.7s-4.82-4.114-5.562-4.595-2.62-2.233-3.077-1.93-.475.632,1.178,2.482,3.283,4.137,2.485,4.641-.869-.159-1.454.467-.213,1.855-.992,2.031-1.046,1.04-.883,2.037c0,0-1.351.583-.81,2.7,0,0-1.393,1.349-.707,2.814,0,0-3.135,4.986-5.264,5.745s-8.116,7.671-7.158,12.118a90.273,90.273,0,0,0-6.733,10.384s-10.263,6.782-12.509,11.6-4.145,7.345-6.407,6.56-6.6-5.751-6.6-5.751-1.142-3.139-.4-4.634a13.26,13.26,0,0,0-.295-10.829,4.028,4.028,0,0,0,.731-.95,4.678,4.678,0,0,0-.885-5.379c.164-2.358-2.1-4.976-5.517-6.155-3.835-1.325-7.657-.334-8.537,2.213-.02.06-.03.12-.048.18a12.326,12.326,0,0,0-5.443,1.461c-4.977,2.576-5.722,5.426-5.722,5.426s-4.4,5.317-1.677,11.619,3.476,5.9,3.476,5.9l.971,3.568a14.627,14.627,0,0,0,10.571,7.329s1.872.544,2.522-.592,3.224,5.16.126,8.207a33.247,33.247,0,0,1-4.162,3.72,7.816,7.816,0,0,0-5.014,3.234s-7.321,3.1-13.414,13.6c0,0-11.879,6.655-13.794,9.475,0,0-11.89,3.139-15.038,7.063-2.621,3.266-13.277,8.718-17.621,10.492a19.8,19.8,0,0,0-3.5,1.893,5.279,5.279,0,0,1-2.028.96c-1.177.081-10.195,1.625-11.1,2.159s-5.529,3.277-5.614,3.492-3.062,3.708-3.107,4.511.8,1.363,2.043.114,2.9-3.424,5.394-3.5c0,0-1.623,2.837-1.636,3.057s-.362,3.859-1.056,4.48c0,0-.724,2.448-.468,3.121s1.386,1.4,2.432-.3a9.006,9.006,0,0,0,.972-4.265l.305,5s.458.977,1.61.017.521-5.388.521-5.388.284-1.156,1.079-.965a14.573,14.573,0,0,0,.255,1.992,12.163,12.163,0,0,0,1.676,2.73c.427.243,1.425-.58.553-2.019s-.715-2.9-.407-3.171,1.315-2.562,1.757-2.61a45.487,45.487,0,0,0,5.807-1.725,22.351,22.351,0,0,0,5.592-3.127c2.608-2.123,13.826-2.594,37.634-15.753,4.49-2.481,15.853-8.462,17.813-9.544,3.247-1.793,6.445-6.593,10.114-5.434a11.127,11.127,0,0,1,4.9,2.691c.636.4,1.378.223,1.929.839s.866,1.513,1.593,1.627.835.779,1.548,1.112.732,1.286,1.875,1.789.665,1.209,1.216,1.825,1.361,1.834,1.706,2.219a9.919,9.919,0,0,1,.85,1.805c.263.526.616.766.644,1.573s-1.113,2.867-1.027,3.969-2.412,5.479-2.951,5.618c-1.7.436-1.286,2.051-2.04,2.447s-6.17,4.267-8.835,20.478c0,0-.92,2.694,1.016,11.259,0,0,.942,26.3,2.217,29,0,0-3.283-2.161-9.3-2.5s-21.523-1.975-21.887-3.314-1.019-5.327-1.864-5.924-3.69-2.732-8.271.634c0,0-3.411.138-4.87-1.262s-3.97-3.626-6.39-3.542c0,0-1.94-.659-2.785-.266s-.654.9-.654.9a1.67,1.67,0,0,0-1.927.422c-.823.942-.691,2.524,2.065,2.349s5.706,7,10.06,9.934,8.5,5.364,14.165,6.175,27.675,11.71,30.055,15.3a1.564,1.564,0,0,1,.54,1.458s-5.771,11.535-4.143,21.657,7.384,30.21,6.17,34.9a10.958,10.958,0,0,0-1.389,2.557,4.516,4.516,0,0,0-2.985,3.64c-.533,2.971,1.57,5.944,1.257,7.61s-2.774,10.313.438,14.374c0,0-.236,2.915,1.6,2.871,0,0-.215,1.233,2.27,1.3a3.59,3.59,0,0,0,.9-.389,2.366,2.366,0,0,0,2.071.922c1.235.009,1.213-.333,1.157-.469.159.276,1.057,1.539,3.68.374,0,0,1.917,1.059,2.874-.351s.087-2.85-1.643-3.315-3.77-1.968-3.319-3.48,3.069-7.734,4.008-11.416.87-11.591-.6-14.161.933-49.291,3.221-53.555a53.984,53.984,0,0,0,8.988-11.43c3.891-6.736,12.214-20.691,15.154-47.028.353-3.162,2.132-8.356,3.757-12.161,1.77-4.147-1.233-8.049,1.325-21.01,0,0,2.778-12.985-.405-20.85s-1.094-13.788-1.451-15.235-.873-5.978-8.2-10.452c0,0-1.775-3.614.484-8.648s8.581-12.038,9.653-13.516a59.657,59.657,0,0,0,8.236-15.679c2.521-7.765,6.79-17.3,8.389-18.418s3.189-2.017,3.914-5.16,1.626-5.51,1.092-5.76" transform="translate(-831.574 -55.908)" fill="#e51a4a"/>
</svg>
