<svg id="Component_3_1" data-name="Component 3 – 1" xmlns="http://www.w3.org/2000/svg" width="205.936" height="264.853" viewBox="0 0 205.936 264.853">
  <g id="Group_211" data-name="Group 211" transform="translate(-89.075 -2080.935)">
    <path id="Path_359" data-name="Path 359" d="M223.075,255.128c-.916-1.268-1.773-2.579-2.733-3.8-1.807-2.29-7.38-2.729-9.969-3.365-2.2-.539-4.417-1.061-6.58-1.733-2.446-.76-3.231-1.682-5.128-3.19-2.408-1.9-9.238-2.677-9.045,2.107l.289,7.625-11.143,3.816c-3.528,1.2-8.631,2.262-10.574,5.873l-24.945-38.744-12.915-19.662c-.112-.167,1.22-2.426,1.22-2.89-.007-1.77-1.433-3.586-1.965-5.279-.824-2.623-1.461-5.329-2.09-8.012a61.943,61.943,0,0,1-1.561-8.387c-.1-1.047-.376-4.422.562-5.093,1.971-1.409,3.049,3.664,4.828,4.306,2.405.875,2.6-.379,4.505,1.308,1.037.914,4.971,8.129,6.533,7.612l7.926,10.271,5.867,2.055s2.64,1.763-1.759,4.11c0,0-4.7,4.991,2.347,3.522,0,0,8.51-1.176,8.216-3.522,0,0,6.458-6.165-2.053-12.328-.716-.515-2.644-2.346-2.644-2.346-3.519-5.87-12.619-16.437-12.619-16.437l-2.639-6.455c-3.139-6.374-5.366-13.3-9.5-19.146a35.968,35.968,0,0,0-7.24-7.25,58.282,58.282,0,0,0-9.113-6.21c-2.466-1.292-5.54-2.222-7.074-4.723-.969-1.577-3-1.441-3.906-3.054-.452-.8-1.443-5.018-.729-5.695,0,0,7.043-6.752-.585-12.328,0,0,9.39-18.195-15.852-18.781,0,0-23.481,8.8-11.152,22.6,0,0-.588,10.571,2.932,9.686l3.814,9.686s-6.131,2.049-6.161,2.055c.919-.3-4.082-5.631-4.58-5.983-3.269-2.3-6.919-3.959-10.083-6.438-1.477-1.158-4.682-3.055-5.487-4.787-1.409-3.054,1.866-6.472,2.193-9.4.283-2.554-1.293-4.421-2.756-6.311-.877-1.136-1.551-3.786-2.692-4.525-.992-.644-5.161-.515-5.979.468-.989,1.176-.321,3.556-1.336,5.063-1.389,2.08-1.833,2.423-1.561,4.91a36.643,36.643,0,0,0,.731,4.443,8.28,8.28,0,0,0,.823,2.747c.74.977,1.662,1.3,2.352,2.391.683,1.072,1.253,2.225,1.947,3.3,1.148,1.778,2.5,3.466,3.567,5.3,2.562,4.387,5.065,8.818,7.6,13.226.946,1.579,1.9,3.152,2.848,4.736,1.612,2.666,2.143,2.971,5.17,3.346,3.839.476,3.818,4.476,3.243,7.3-.624,3.063-1.51,5.988-1.51,9.138.006,5.052,1.4,10.048,1.4,15.1,0,0,2.926,25.195,2.934,25.241,1.074,9.685,1.215,19.826-2.472,29.016-1.9,4.733-4.823,7.979-8.757,11.117-5.308,4.236-8.161,9.46-11.407,15.227-2.947,5.231-8.235,9.55-9.335,15.679-.615,3.434.517,6.662,1.183,10,2.579,12.925,2.15,26.658,1.564,39.77,0,.1-.4,5.009-.994,4.521-.078-.063-3.745,2.409-3.876,2.482-.078.02.019-.136.037-.142-2.64,1.374-5.613,3.275-8.557,3.878-4.634.951-10.571,1.32-14.585,4.033-5.666,3.829,2.109,7.192,5.359,8.4,11.338,4.208,23.968,2.828,35.989,3.645,0,0,6.455-1.758,2.937-13.5-.106-4.723-.1-9.457.142-14.178.272-5.352,1.77-10.407,3.5-15.435,1.772-5.143,1.819-7.954,1.471-13.281C71.378,292.463,68.989,279.2,69,279.19c2.085-1.308,5.046-4.3,7.567-4.334,4.053-.049,5.485,4.6,8.921,2.222,2.538-1.749,3.884-5.187,6.053-7.346,5.846-5.823,12.795-10.855,19.165-16.1,5.2,2.344,9.789,5.849,14.268,9.339,1.914,1.5,3.57,3.306,5.519,4.767a9.972,9.972,0,0,0,3.271,1.977c1.426.328,1.93-.8,3.2-.733,4.048.194,6.946,4.078,9.54,6.727,3.391,3.461,7.356,6.307,11.126,9.342,12.312,9.939,23.1-4.634,31.69-11.709,3.653-3.008,9.866-8.714,15.093-6.973,3.4,1.136,4.939.429,7.808-1.562l9.385,1.178s8.807-1.178,1.473-10.861" transform="translate(69.019 1991.63)" fill="#e51a4a"/>
    <path id="Path_360" data-name="Path 360" d="M134.2,346.918a18.919,18.919,0,1,0-18.92,18.92,18.92,18.92,0,0,0,18.92-18.92" transform="translate(65.285 1979.951)" fill="#e51a4a" fill-rule="evenodd"/>
  </g>
</svg>
