<svg xmlns="http://www.w3.org/2000/svg" width="213.798" height="199.992" viewBox="0 0 213.798 199.992">
  <path id="Path_369" data-name="Path 369" d="M1129.153,144.909s3.311-5.925,3.485-9.412a4.614,4.614,0,0,0-.7-2.7,6.462,6.462,0,0,0,1.219-3.05c0-1.394-2-8.8-3.049-10.544a1.668,1.668,0,0,0-.349-1.656,16.284,16.284,0,0,0-14.378-5.49c-8.8,1.046-12.982,9.934-13.07,14.117s1.394,8.626,0,10.892-4.182-2.265-4.966-2.7-2.7.348-3.485.087a10.847,10.847,0,0,0-7.233-.7c-3.921.959-5.839.175-8.8,4.706a17.809,17.809,0,0,1-3.66,2.178c-1.22.349-.61,2-2.527,3.05s-3.572,4.357-3.834,5.838-3.921.174-9.237,9.934S1055,175.145,1055,175.145a25.624,25.624,0,0,0,2.789,4.618s14.2,4.618,18.647,5.141l1.482-.523a58.19,58.19,0,0,0,1.394,13.506c1.568,6.1,8.191,15.51,8.191,15.51s-1.046.871-.611,2.963a48.035,48.035,0,0,0,1.917,5.4s-.088.958,2.265,1.567a24.6,24.6,0,0,1,.175,6.884c-.523,2.7-20.042,26.228-20.042,26.228l5.4,3.4,13.245-20.739s.61,7.233-.61,8.976a4.775,4.775,0,0,0-.959,4.356c.349,1.393-7.232,25.095-8.191,31.108s-1.307,9.672-.348,11.328,1.394,3.223,3.573,4.269,6.273,2.7,7.057,2.614,11.764-.174,22.046-3.486,10.108-.261,10.108-.261-.61,3.572.348,4.879a1.61,1.61,0,0,0,.407,1.656s-.291,2.731.929,3.079c0,0-.174,1.278.872,1.568s1.393-.929,1.393-.929-.349,1.568.29,1.859,1.627.348,1.917-.523a9.166,9.166,0,0,0,.349-2.033,5.211,5.211,0,0,1-.059,2.749c-.464,1.2,1.626,2.421,3.428.911s2.9-5.519,2.5-7.61-2.906-3.079-2.79-11.037a8.9,8.9,0,0,1,.93-4.532c1.1-1.683.116-6.331-2.9-5.867,0,0-2.9-.348-4.182,1.743s-2.557,1.51-2.557,1.51a15.651,15.651,0,0,0-1.22-3.63c-.61-.871-1.307,1.393-4.966.7,0,0-.436-.7-2.179-.436a3.99,3.99,0,0,0-4.357,0s3.312-1.567,4.444-4.008-.175-2.788,1.133-4.1,4.531-9.5,5.054-10.893,1.917-8.8,4.269-10.281,7.407-10.456,8.452-10.893,1.684,3.573,1.684,3.573l6.274-3.835-.7-2.788s9.526-3.37,12.43-3.254,19.634-4.531,22.539-6.041,10.572-4.88,12.9-4.88a141.763,141.763,0,0,1,14.754.581c8.133.7,17.776-2.673,19.519-2.789s13.478,0,18.706-1.858a30.933,30.933,0,0,1,10.92,1.974c5,2.091,6.855,3.37,9.063-1.278,0,0,.929-.928.581-6.04,0,0,3.6-3.288,4.066-3.329s2.44-2.016,1.51-6.779a7.992,7.992,0,0,0-.7-5.577A1.373,1.373,0,0,0,1267,198a1.5,1.5,0,0,0-1.8-1.452,1.338,1.338,0,0,0-1.742.116c-.814.813-.7,2.556-.581,3.138a2.05,2.05,0,0,0-2.324-.175c-1.22.755-1.045,2.963-.349,3.6a2.045,2.045,0,0,1-1.1,3.253c-1.858.581-6.448,4.3-7.609,4.532s-9.76.928-10.515-.348-11.734-21.146-14.406-22.017-26.055,15.074-31.108,14.813-7.813-1.684-12.345,1.22-15.684-.116-19.286.116-17.542.349-20.564-.813-3.834-2.672-7.668-3.254l-1.626-1.51a3.664,3.664,0,0,0,0-4.879,12.927,12.927,0,0,0-1.51-7.9s3.253-12.082,4.88-12.43,2.439-2.906,3.485-2.673,15.569-.348,16.5-.7,2.674-1.626,4.3-1.51,8.248-.582,9.177-1.162,2.439-3.254,3.834-2.673,14.175,1.394,14.175,1.394,19.983-.813,20.1-1.394a30.061,30.061,0,0,0-.232-3.718,19.5,19.5,0,0,1,8.249-.464,3.927,3.927,0,0,0,2.673,1.278c1.743.116,3.486-1.162,4.647-1.743s5.374-.668,5.374-.668,1.045-.523,1.22-1.22.871-3.312-2.527-2.875c0,0-2,1.045-2.7.871s.61-1.568,1.307-1.83a15.514,15.514,0,0,0,2.791-2.535,37.606,37.606,0,0,0,3.095-2.857s2.2-2.262,3.332-2.619a1.216,1.216,0,0,0,.418-2.023s1.19-.654,1.369-1.191.3-1.725-1.487-1.487a2.4,2.4,0,0,0-1.965-.3c-1.191.3-8.808,5.119-10.892,6.19s-4.88,3.275-8.809,5.416c0,0-.476.476-1.606-.119s-2.558-.06-3.333,0-3.869-.179-4.167-.714-4.344-12.38-6.547-13.689c0,0-8.187,3.726-13.763,8.606a11.794,11.794,0,0,0-6.8.173c-3.572,1.221-3.659-1.132-4.7-1.307s-2.178,1.221-3.137,1.134-5.141-1.046-6.971-.871-3.746.523-5.228.523-5.839-.611-7.581.521-7.668-2.439-8.887-2.614-3.225-.7-4.792.959a4.066,4.066,0,0,1-3.138,1.482s-2.178-.611-2.613,0a2.857,2.857,0,0,0-2.353-2.7" transform="translate(-1054.727 -111.932)" fill="#e51a4a"/>
</svg>
