<svg xmlns="http://www.w3.org/2000/svg" width="88.494" height="293.614" viewBox="0 0 88.494 293.614">
  <g id="Group_212" data-name="Group 212" transform="translate(-351.829 -2052.174)">
    <path id="Path_362" data-name="Path 362" d="M364.414,229.576c-.711-3.177.2-6.666-1.119-9.716a7.306,7.306,0,0,0-1.3-1.929,3.17,3.17,0,0,1-.962-2.073c-.028-.477.028-.956.009-1.433a3.447,3.447,0,0,0-.321-1.37,2.854,2.854,0,0,1,.954.361.233.233,0,0,0,.337-.137c1.67-5.447.161-10.968-1.879-16.085-1.029-2.582-2.194-5.108-3.2-7.7-.649-1.676-1.837-3.378-1.994-5.2-.292-3.374,2.561-7.86.168-10.92a17.739,17.739,0,0,0-7.785-5.266c1.079-.484,2.119-.973,3.1-1.429,4.925-2.291,15.043-6.972,15.193-7.014a3.233,3.233,0,0,0,1.737-1.7,9.128,9.128,0,0,0,.889-5.583,26.153,26.153,0,0,0-2.382-7.048c-1.11-2.52-11.944-20.29-12.1-22.494-.144-1.978.768-3.961-.058-5.825a6.385,6.385,0,0,0-1.643-2.133,3.585,3.585,0,0,1-1.263-2.225c-.111-.689-.035-1.388-.127-2.074-.134-1-.94-1.538-1.539-.5-.86,1.484-.524,3.334-.171,4.931a8.6,8.6,0,0,1-2.359-2.4,3.9,3.9,0,0,1,.185-2.131c.2-.534.773-1.234.588-1.855-.244-.822-.861-.539-1.372-.1a16.673,16.673,0,0,1,1.337-1.955,3.357,3.357,0,0,0,.73-2.642.234.234,0,0,0-.281-.163c-.767.139-1.427,1.172-1.952,1.841.111-1.154.02-2.276-.865-2.34a.193.193,0,0,0-.214.158.248.248,0,0,0-.027.06q-.528,2.311-1.055,4.623a8.533,8.533,0,0,0-.255,3.374c.251,1.523.783,2.945.95,4.489a6.588,6.588,0,0,0,1.5,3.508c.068.091,4.962,8.3,5.971,12.944.025.11,2.79,10.987,4.186,16.372a26.737,26.737,0,0,0,1.575,4.57,19.993,19.993,0,0,0-5.588,2.089,23.985,23.985,0,0,1-7.538,2.559c1.452-2.923,2.925-5.88,2.962-6.246a12.812,12.812,0,0,0,.7-1.392c3.147-7.407-.586-17.074-2.578-24.431-.963-3.56-1.939-7.118-2.818-10.7-.449-1.833-1.543-4.51-1.183-6.434.365-1.95,1.75-3.635,1.426-5.648a6.367,6.367,0,0,0-1.045-2.481,3.584,3.584,0,0,1-.656-2.473c.068-.7.321-1.35.406-2.039.125-1-.518-1.725-1.361-.878-1.21,1.215-1.354,3.091-1.42,4.725a8.6,8.6,0,0,1-1.672-2.917,3.9,3.9,0,0,1,.722-2.014c.332-.465,1.061-1,1.04-1.644-.027-.857-.694-.74-1.3-.441a16.66,16.66,0,0,1,1.792-1.551,3.349,3.349,0,0,0,1.377-2.368.234.234,0,0,0-.229-.229c-.776-.061-1.678.769-2.356,1.284.4-1.087.6-2.2-.241-2.482a.338.338,0,0,0-.287.148q-1.1,2.1-2.2,4.2a8.557,8.557,0,0,0-1.106,3.2c-.145,1.536.009,3.045-.223,4.582a6.577,6.577,0,0,0,.561,3.775c.044.106,2.686,9.291,2.48,14.039-.1,2.417-.043,4.851-.061,7.271-.033,4.351-.291,8.518.367,12.839.591,3.868.617,7.893-1.229,11.453-.192.373-.376.749-.556,1.126q-.308-.8-.644-1.584a9.928,9.928,0,0,1-.906-2.839c-.19-1.88-3.5-3.761-4.957-4.627a11.49,11.49,0,0,0-6.518-1.767c-2.2.137-5.119.017-7.193.7a8.841,8.841,0,0,0-5.528,5.419c-.231.674-.158,1.629-.752,2.013-.613.4-1.759.231-2.517.488a10.541,10.541,0,0,0-3.721,2.486c-2.19,2.087-4.146,4.917-3.692,8.09.521,3.647,3.668,6.285,4.136,9.954a.232.232,0,0,0,.428.116c.039-.046.08-.091.12-.137.935,3.879,4.86,7.022,4.013,11.245a.232.232,0,0,0,.337.259,2.068,2.068,0,0,0,.723-.585,6.821,6.821,0,0,1-.086,1.778.231.231,0,0,0,.418.178c2.928-3.811,5.514-7.77,4.608-12.782a41.763,41.763,0,0,0-2.281-6.968,29.216,29.216,0,0,1-1.128-3.618c-.257-1.126-.6-2.727.253-3.674-.376.419.282,2.767.4,3.288a11.686,11.686,0,0,0,1.234,3.194c1.727,2.975,7.442,5.882,10.812,4.338.179-.082,1.728,1.386,1.912,1.452-.156.243-1.027,1.291-1.164,1.584a9.317,9.317,0,0,0,.185,7.19,92.889,92.889,0,0,0,5.119,10.13c1.815,3.453,3.966,6.9,5.317,10.566a16.116,16.116,0,0,1,.253,10.281,15.779,15.779,0,0,1-1.182,2.833c-.414.764-1.013,1.454-1.363,2.247a1.666,1.666,0,0,0,.495,2.194,4.56,4.56,0,0,0-1.124,1.334.232.232,0,0,0,.138.337q1.007.225,2.023.407a19.987,19.987,0,0,0-3.76,7.162,23.968,23.968,0,0,0-.453,9.3c.37,3.4.728,6.8-1.059,9.884a5.36,5.36,0,0,0-.729,1.654,10.9,10.9,0,0,0,.036,2.328,18.276,18.276,0,0,1-.6,5.22,20.54,20.54,0,0,1-2.06,4.837,3.266,3.266,0,0,0-.365,3.241c1.133,2.373,3.732,3.988,6.138,4.8.087.029.176.049.263.077-.5,6.44-.693,11.546-.789,12.82A44.8,44.8,0,0,0,315.62,295.08c-1.977,4.35-3.429,8.959-5.044,13.453l-3.1,8.631c-.42-1.069-1.116-2.454-1.929-1.488-.573.678-.192,1.657-.273,2.435-.144,1.385-1.5,1.818-2.643,2.27a12.257,12.257,0,0,0-3.4,1.845,6.1,6.1,0,0,1-1.77,1.008c-1.207.464-1.367,2.277-.852,3.5.311.743,2,7.537,2.246,8.983a37.278,37.278,0,0,0,6.792,16.052c1.4,1.87,3.241,2.92,5.541,1.917,1.738-.758,3.463-2.635,2.557-4.611a18.9,18.9,0,0,1-1.75-4.083,20.553,20.553,0,0,1-.3-4.963c.107-2.951.209-5.979.6-8.908a9.825,9.825,0,0,1,1.4-4.247,21.773,21.773,0,0,1,2.2-2.094c.443,1.795.853,3.553.962,4.208a37.271,37.271,0,0,0,6.793,16.053c1.4,1.87,3.241,2.92,5.54,1.917,1.738-.758,3.463-2.636,2.557-4.611a18.839,18.839,0,0,1-1.749-4.082,20.578,20.578,0,0,1-.3-4.966c.106-2.949.209-5.978.6-8.906a9.816,9.816,0,0,1,1.4-4.248c.744-1.1,2.316-1.738,2.792-3a1.455,1.455,0,0,0-.839-1.887c-.872-.395-1.941-.1-2.854-.257,6.376-8.6,19.7-29.375,24.678-35.714a8.388,8.388,0,0,0,2.594-2.241,18.046,18.046,0,0,0,3.079-5.557,7.911,7.911,0,0,1,1.518-3.407,20.794,20.794,0,0,0,2.611-4.6,13.807,13.807,0,0,0,5.384-2.164c.15-.1.153-.379-.054-.42-1.8-.358-.409-4.61-.214-5.746a51.817,51.817,0,0,0,.741-5.767,19.37,19.37,0,0,0-2.123-10.215c-1.616-3.144-3.807-6.093-4.593-9.6" transform="translate(55.5 1991.711)" fill="#e51a4a"/>
    <path id="Path_363" data-name="Path 363" d="M369.816,59.064A17.735,17.735,0,1,0,387.55,76.8a17.735,17.735,0,0,0-17.735-17.735" transform="translate(52.772 1993.11)" fill="#e51a4a"/>
  </g>
</svg>
