<svg xmlns="http://www.w3.org/2000/svg" width="270.465" height="389.079" viewBox="0 0 270.465 389.079">
  <path id="Path_367" data-name="Path 367" d="M768.062,272.224c-.364-3.095-2.185-14.382-20.207-24.212,0,0-9.831.91-10.924-5.1s-12.925-9.649-16.93-8.374c0,0-1.821,3.095-1.274,3.822,0,0-2,2.913-1.457,4.733,0,0-2.912,4.37-2.366,6.19,0,0-3.095,5.643-1.82,7.281,0,0-2.549,5.826-23.666,11.833s-34.044,24.395-34.225,27.307-4,1.639-7.646-6.19-7.828-15.656-12.743-20.571-9.649-15.475-9.1-17.477.182-1.684-.774-4.142c0,0,.409-1.365-.82-1.639,0,0,7.238-21.846-16.11-38.366a16.848,16.848,0,0,0-4.506-2.459c-1.776-.41-2.185.546-3.413-.41s-1.639-1.229-1.912-3a5.371,5.371,0,0,0-1.912-3.277c-.682-.682-1.365-3.549-2.321-4.1s0-2.458-2.322-5.871-2.171-11.318-2.867-12.562c-1.6-2.861-3.276-3.959-3-5.461s-2.867-7.374-3.55-21.436-11.606-30.448-17.34-28.127a8.587,8.587,0,0,0-4.779-.547s-5.188-.046-3.185-2.958c1.493-2.173,6.735-10.013,4.687-11.652l1.5-.137s2.594-4.505,3-6.28l-.41-1.366a12.652,12.652,0,0,0,.45-1.652c1.1.84,2,2.187,3.145,2.7,2.914,1.3,6.009,2.366,8.921-1.093s-.364-5.1-.364-5.1c3.095-1.457.364-5.462,0-6.554s-2.731.546-3.641-2.041-3.095.4-5.462.038a5.515,5.515,0,0,0-3.826,1.25c-1.881-4.7-2.311-6.047-3.319-6.8-.33-.248-.864-.722-1.562-1.251,8.615-8.819,13.259-5.215,13.259-5.215,6.462,2.643,19.174-11.587,21.755-14.288,5.825-6.1,32.315-44,12.47-44S568.171,55.586,565.8,60.318c-1.779,3.559-8.7,10.925-12.031,14.361a7.85,7.85,0,0,0-.894.021,44.2,44.2,0,0,1-6.555-2.367,2.784,2.784,0,0,0-3.822,1.184s-4-2.278-6.008-.184-1.092,2.1-1.092,2.1h-.91s-8.375,6.007-9.1,7.646L511.736,86.9s.729,5.462,5.28,4.368c0,0,3.459.729,2.731,3.46-1.52,5.7-12.781,7.169-17.43,15.884a23.116,23.116,0,0,1-2.445,3.636,10.7,10.7,0,0,0-2.011,3.89,7.207,7.207,0,0,0,1.534,6.57c1.2,1.4,3.217,3.842,5.566,6.589,5.594,6.542,10.271,7.769,13.663,9.278,6.073,2.7,5.827,4.217,6.569,8.951s0,20.207,0,20.207-3.08,9.1,11.3,17.3c0,0,5.644,14.381,9.1,18.568s12.925,19.662,13.472,25.123c0,0-11.288,14.382-12.744,14.382v2.731s-18.023,24.031-21.3,37.321a50.747,50.747,0,0,1-3.275,4.534c-5.279,6.452-4.624,9.539-1.458,18.586.1.279,1.264,4.319,1.456,4.551,0,0,15.111,54.979,14.2,62.079a1.188,1.188,0,0,0-1.639-.91c-1.456.364-.363,4.552-1.273,4.916s-1.094-1.639-2.55-.91-1.093,2.185.182,3.095c0,0-.546,1.82-6.917,3.641a3.185,3.185,0,0,0,3.095,0s-6.371,6.007-12.925,6.735-8.011,2.367-7.828,4.733-.183,4.188,4.914,4.915,22.03,1.639,24.032,1.639,6.371-2.549,10.74-1.274,13.836,1.456,19.479-2.731c0,0-.363-5.645-3.276-7.647,0,0,.183-4.187-2.912-6.554,0,0-2.367-8.009-3.642-9.467s-2-1.092-2-1.092-4.006-17.294-2.366-30.4-7.1-39.686-7.1-39.686,13.108-15.475,22.028-19.48,20.753-15.838,22.756-21.663c0,0,10.948,21.927,35.864,43.145,7.693,6.551,19.277,20.383,26.579,17.3a23.006,23.006,0,0,1,2.573-.663,14.81,14.81,0,0,0,6.49-3.576c4.257-4.021,12.584-11.5,17.7-13.6,7.1-2.913,29.674-30.767,48.607-33.133,0,0,.91,2.185,1.82,2.366s5.279-2.185,5.279-2.185.729,1.093,2.731.729c0,0,.91-1.82,2.549-1.639s9.1-.182,11.106.364,2.912,1.82,5.278,1.092c0,0,4.551,2,6.555,3.823s6.554-1.456,6.19-4.551M576,55.586c11.986-31.05,32.872-40.858,33.133-35.136.753,16.5-46.969,70.975-33.133,35.136M562.143,71.108l6.938-8.423s-1.456,4.733,0,5.461c0,0-4.8.984-6.938,2.962l-.708.859a3.66,3.66,0,0,1,.708-.859m-24.488,50.683c-.016.783-.159-.942-2.343.787,0,0-3.369-.182-4.6.546,0,0-5.961-3.549-12.06-3.368,0,0-.182-1.365-3-3.095,0,0,5.644-7.555,5.006-7.555,0,0,.139,1.274.479,1.456a2.454,2.454,0,0,0,1.159,3.278,3.167,3.167,0,0,1,0,2.093c-.364,1.365-.456,6.28,7.736,4,0,0,7.688-1.229,7.624,1.852" transform="translate(-497.617 -13.675)" fill="#E51A4A"/>
</svg>
